<?xml version="1.0" encoding="UTF-8"?>
<svg id="Layer_2" data-name="Layer 2" xmlns="http://www.w3.org/2000/svg" viewBox="0 0 347.1 20">
  <g id="Layer_1-2" data-name="Layer 1">
    <g>
      <g>
        <path d="M27.79,20c-.52,0-.94-.42-.94-.97s.41-.94.94-.94h19.24c.53,0,.97.42.97.94,0,.54-.42.97-.97.97h-19.24ZM27.79,10.97c-.52,0-.94-.43-.94-.97s.41-.94.94-.94h19.24c.53,0,.97.42.97.94s-.44.97-.97.97h-19.24ZM27.79,1.9c-.52,0-.94-.41-.94-.94s.42-.97.94-.97h19.24c.52,0,.97.44.97.97s-.43.94-.97.94h-19.24Z"/>
        <path d="M55.66,20c-.54,0-.97-.42-.97-.97s.43-.94.97-.94h13.41c1.97,0,3.57-1.6,3.57-3.57s-1.6-3.57-3.57-3.57h-10.21c-3.01,0-5.47-2.45-5.47-5.47S55.85,0,58.87,0h13.41c.52,0,.97.44.97.97s-.43.94-.97.94h-13.41c-1.97,0-3.57,1.61-3.57,3.6s1.6,3.57,3.57,3.57h10.21c3.01,0,5.47,2.45,5.47,5.47s-2.45,5.47-5.47,5.47h-13.41Z"/>
        <path d="M.94,20c-.52,0-.94-.42-.94-.97s.41-.94.94-.94h14.74c1.95,0,3.53-1.6,3.53-3.57v-.03c0-1.97-1.59-3.57-3.53-3.57H.94c-.52,0-.94-.41-.94-.94s.41-.97.94-.97h14.74c1.95,0,3.53-1.6,3.53-3.57s-1.59-3.57-3.53-3.57H.94c-.52,0-.94-.41-.94-.94S.42,0,.94,0h14.74C17.12,0,18.49.57,19.53,1.61c1.04,1.04,1.61,2.41,1.61,3.86s-.56,2.79-1.56,3.83l-.69.71.7.7c.99.99,1.56,2.37,1.56,3.79v.03c0,3.01-2.45,5.47-5.47,5.47H.94Z"/>
      </g>
      <g>
        <path d="M105.09,20c-1.7,0-3.25-.25-4.62-.75-1.35-.49-2.53-1.22-3.52-2.17-.92-.9-1.63-1.97-2.11-3.19-.49-1.23-.73-2.54-.73-3.88s.24-2.66.73-3.84c.47-1.21,1.18-2.3,2.12-3.25.97-.93,2.15-1.66,3.5-2.16,1.37-.5,2.93-.76,4.62-.76h1.53c1.7,0,3.25.25,4.62.76,1.35.49,2.53,1.22,3.52,2.17.2.21.3.43.3.72s-.09.53-.3.75c-.2.21-.42.31-.72.31h0c-.3,0-.52-.09-.73-.3-1.63-1.56-3.88-2.34-6.7-2.34h-1.53c-1.32,0-2.53.18-3.6.54-1.1.36-2.06.9-2.84,1.59-.79.7-1.41,1.55-1.84,2.54-.43.98-.64,2.08-.64,3.28s.22,2.31.64,3.28c.43.98,1.05,1.84,1.84,2.53.78.69,1.74,1.23,2.84,1.59,1.08.35,2.29.53,3.6.53h1.53c2.82,0,5.05-.77,6.65-2.3.22-.2.47-.3.78-.3.27,0,.47.1.67.31.22.24.32.47.32.77,0,.28-.1.5-.33.71-2,1.9-4.71,2.87-8.08,2.87h-1.53Z"/>
        <path d="M119.77,20c-.14,0-.28-.03-.43-.1-.27-.12-.43-.3-.53-.57-.1-.28-.09-.52.03-.79l6.79-14.92c.52-1.11,1.27-1.98,2.28-2.64,1.01-.66,2.1-.98,3.34-.98s2.3.32,3.32.98c1.02.66,1.76,1.53,2.26,2.64l6.82,14.92c.12.26.13.5.02.77-.11.28-.28.46-.55.59-.14.07-.27.1-.41.1-.2,0-.38-.05-.55-.17-.18-.11-.31-.25-.39-.44l-6.78-14.93c-.34-.74-.86-1.32-1.54-1.74-.67-.41-1.41-.62-2.19-.62s-1.55.21-2.21.63c-.67.42-1.18,1-1.52,1.73l-6.82,14.95c-.12.27-.3.43-.57.53-.13.05-.24.07-.36.07Z"/>
        <path d="M149.64,20c-.29,0-.51-.09-.72-.3-.21-.21-.3-.44-.3-.75V1.05c0-.29.09-.52.31-.74.21-.21.42-.31.71-.31s.51.1.73.31.31.44.31.73v16.89h15.43c.29,0,.52.1.74.31.21.21.31.42.31.71,0,.31-.09.53-.31.74-.22.21-.45.31-.74.31h-16.47Z"/>
        <path d="M180.57,20c-1.7,0-3.25-.25-4.62-.75-1.35-.49-2.53-1.22-3.52-2.17-.92-.9-1.63-1.97-2.11-3.19-.49-1.23-.73-2.54-.73-3.88s.24-2.66.73-3.84c.47-1.21,1.18-2.3,2.12-3.25.97-.93,2.15-1.66,3.5-2.16,1.37-.5,2.93-.76,4.62-.76h1.53c1.7,0,3.25.25,4.62.76,1.35.49,2.53,1.22,3.52,2.17.2.21.3.43.3.72s-.09.53-.3.75c-.2.21-.42.31-.72.31h0c-.3,0-.52-.09-.73-.3-1.63-1.56-3.88-2.34-6.7-2.34h-1.53c-1.32,0-2.53.18-3.6.54-1.1.36-2.06.9-2.84,1.59-.79.7-1.41,1.55-1.84,2.54-.43.98-.64,2.08-.64,3.28s.22,2.31.64,3.28c.43.98,1.05,1.84,1.84,2.53.78.69,1.74,1.23,2.84,1.59,1.08.35,2.29.53,3.6.53h1.53c2.82,0,5.05-.77,6.65-2.3.22-.2.47-.3.78-.3.27,0,.47.1.67.31.22.24.32.47.32.77,0,.28-.1.5-.33.71-2,1.9-4.71,2.87-8.08,2.87h-1.53Z"/>
        <path d="M205.9,20c-1.52,0-2.93-.26-4.17-.76-1.22-.5-2.29-1.23-3.17-2.19-.84-.92-1.48-2-1.88-3.22-.44-1.2-.66-2.48-.66-3.84V1.05c0-.29.1-.51.31-.73.22-.22.44-.31.73-.31s.51.1.73.31.31.44.31.73v8.95c0,.94.14,1.88.4,2.79.28.95.73,1.81,1.35,2.57.62.76,1.44,1.39,2.44,1.87,1,.47,2.21.71,3.6.71h1.38c1.41,0,2.63-.24,3.63-.71,1-.47,1.82-1.1,2.44-1.87.62-.75,1.07-1.62,1.34-2.57.27-.92.4-1.85.4-2.79V1.05c0-.29.1-.51.31-.73.22-.22.44-.31.73-.31s.5.09.71.31c.21.22.31.45.31.74v8.95c0,.68-.05,1.35-.16,1.99-.1.63-.26,1.25-.46,1.82-.41,1.23-1.05,2.32-1.89,3.24-.88.95-1.95,1.69-3.18,2.18-1.25.5-2.66.76-4.18.76h-1.38Z"/>
        <path d="M224.27,20c-.29,0-.51-.09-.72-.3-.21-.21-.3-.44-.3-.75V1.05c0-.29.09-.52.31-.74.21-.21.42-.31.71-.31s.51.1.73.31.31.44.31.73v16.89h15.43c.29,0,.52.1.74.31.21.21.31.42.31.71,0,.31-.09.53-.31.74-.22.21-.45.31-.74.31h-16.47Z"/>
        <path d="M247.11,20c-.14,0-.28-.03-.43-.1-.27-.12-.43-.3-.53-.57-.1-.28-.09-.52.03-.79l6.79-14.92c.52-1.11,1.27-1.98,2.28-2.64,1.01-.66,2.1-.98,3.34-.98s2.3.32,3.32.98c1.02.66,1.76,1.53,2.26,2.64l6.82,14.92c.12.26.13.5.02.77-.11.28-.28.46-.55.59-.14.07-.27.1-.41.1-.2,0-.38-.05-.55-.17-.18-.11-.31-.25-.39-.44l-6.78-14.93c-.34-.74-.86-1.32-1.54-1.74-.67-.41-1.41-.62-2.19-.62s-1.55.21-2.21.63c-.67.42-1.18,1-1.52,1.73l-6.82,14.95c-.12.27-.3.43-.57.53-.13.05-.24.07-.36.07Z"/>
        <path d="M281.66,20c-.29,0-.52-.09-.74-.31-.21-.21-.31-.43-.31-.74V2.06h-8.49c-.29,0-.52-.09-.74-.31-.21-.21-.31-.42-.31-.71s.1-.51.31-.73c.22-.22.44-.31.73-.31h19.07c.28,0,.5.09.71.31.21.22.31.45.31.74s-.09.51-.3.72c-.21.21-.43.3-.72.3h-8.52v16.89c0,.31-.09.54-.3.75-.21.21-.43.3-.72.3Z"/>
        <path d="M306.54,20c-1.7,0-3.25-.25-4.62-.75-1.35-.49-2.53-1.22-3.52-2.17-.92-.88-1.64-1.96-2.14-3.2-.46-1.23-.7-2.55-.7-3.88,0-.67.06-1.34.18-1.99.12-.65.3-1.28.52-1.88.49-1.2,1.22-2.3,2.14-3.22.97-.93,2.15-1.66,3.5-2.16,1.37-.5,2.93-.76,4.62-.76h1.53c1.7,0,3.25.25,4.62.76,1.35.49,2.53,1.22,3.52,2.17.93.93,1.64,2.02,2.1,3.22.49,1.21.73,2.5.73,3.86s-.25,2.65-.73,3.88c-.48,1.22-1.19,2.3-2.11,3.2-.98.94-2.16,1.67-3.51,2.16-1.37.5-2.93.75-4.62.75h-1.53ZM306.54,2.06c-1.34,0-2.56.18-3.63.54-1.1.36-2.06.9-2.84,1.59-.79.7-1.41,1.56-1.82,2.54-.41.98-.62,2.08-.62,3.27s.21,2.3.62,3.27c.42.99,1.03,1.85,1.83,2.54.78.69,1.74,1.23,2.84,1.59,1.08.35,2.3.53,3.63.53h1.53c1.31,0,2.52-.18,3.6-.53,1.1-.36,2.06-.9,2.84-1.59.79-.7,1.41-1.55,1.84-2.53.43-.98.64-2.08.64-3.28s-.22-2.3-.64-3.28c-.43-.98-1.05-1.84-1.84-2.54-.78-.69-1.74-1.22-2.84-1.59-1.07-.35-2.28-.53-3.6-.53h-1.53Z"/>
        <path d="M342.93,20c-.33,0-.57-.1-.76-.31l-6.21-6.72h-9.68v5.98c0,.31-.09.53-.31.74-.22.21-.45.31-.74.31s-.51-.09-.72-.3c-.21-.21-.3-.44-.3-.75v-7.03c0-.29.09-.52.31-.74.21-.21.42-.3.71-.3h13.63c.61,0,1.19-.12,1.73-.35.52-.23.98-.54,1.38-.93.41-.4.73-.87.96-1.39.23-.53.35-1.11.35-1.73s-.12-1.19-.35-1.73c-.23-.52-.55-.99-.96-1.39-.41-.41-.87-.73-1.39-.95-.53-.23-1.11-.35-1.73-.35h-13.63c-.29,0-.51-.09-.72-.3-.21-.21-.3-.43-.3-.72s.09-.52.31-.74c.21-.21.42-.31.71-.31h13.63c.87,0,1.7.17,2.47.49.78.33,1.49.81,2.12,1.42,1.27,1.27,1.89,2.77,1.89,4.57s-.62,3.3-1.9,4.58c-.86.86-1.84,1.41-2.99,1.68l-1.52.36,4.44,4.83h2.66c.29,0,.52.1.74.31.21.21.31.42.31.71,0,.31-.09.53-.31.74-.22.21-.45.31-.74.31h-3.12Z"/>
      </g>
    </g>
  </g>
</svg>