<?xml version="1.0" encoding="UTF-8"?>
<svg id="Layer_2" data-name="Layer 2" xmlns="http://www.w3.org/2000/svg" viewBox="0 0 64 64">
  <defs>
    <style>
      .cls-1 {
        fill: #fff;
      }

      .cls-2 {
        fill: #4015a7;
      }
    </style>
  </defs>
  <g id="Layer_1-2" data-name="Layer 1">
    <g>
      <rect class="cls-2" width="64" height="64"/>
      <path class="cls-1" d="M10.31,50.91c-.27,0-.53-.06-.81-.19-.51-.23-.82-.57-1.01-1.08-.19-.52-.17-.98.06-1.49l12.83-28.2c.98-2.09,2.39-3.73,4.31-4.99,1.91-1.25,3.97-1.86,6.31-1.86s4.36.61,6.28,1.86c1.93,1.26,3.33,2.89,4.28,4.99l12.89,28.21c.23.5.24.95.05,1.46-.2.53-.53.87-1.05,1.11-.27.14-.51.19-.78.19-.37,0-.71-.1-1.05-.31-.34-.21-.58-.48-.74-.83l-12.82-28.23c-.65-1.4-1.63-2.51-2.92-3.3-1.27-.78-2.67-1.18-4.14-1.18s-2.92.4-4.18,1.19c-1.27.79-2.23,1.89-2.87,3.28l-12.89,28.26c-.23.5-.56.82-1.08,1-.24.09-.46.13-.68.13"/>
    </g>
  </g>
</svg>